<svg xmlns="http://www.w3.org/2000/svg" xmlns:xlink="http://www.w3.org/1999/xlink" width="1080" zoomAndPan="magnify" viewBox="0 0 810 809.999993" height="1080" preserveAspectRatio="xMidYMid meet" version="1.0"><defs><clipPath id="6baed13fd1"><path d="M 54.167969 0 L 756.167969 0 L 756.167969 810 L 54.167969 810 Z M 54.167969 0 " clip-rule="nonzero"/></clipPath></defs><g clip-path="url(#6baed13fd1)"><path fill="#000000" d="M 54.167969 728.84375 C 54.167969 730.167969 54.203125 731.492188 54.265625 732.816406 C 54.332031 734.140625 54.429688 735.460938 54.558594 736.777344 C 54.6875 738.097656 54.851562 739.410156 55.046875 740.722656 C 55.238281 742.03125 55.464844 743.339844 55.726562 744.636719 C 55.984375 745.9375 56.273438 747.230469 56.597656 748.515625 C 56.917969 749.800781 57.273438 751.078125 57.65625 752.34375 C 58.042969 753.613281 58.457031 754.871094 58.902344 756.117188 C 59.351562 757.367188 59.828125 758.601562 60.335938 759.824219 C 60.839844 761.050781 61.378906 762.261719 61.945312 763.457031 C 62.511719 764.65625 63.109375 765.839844 63.734375 767.007812 C 64.359375 768.175781 65.011719 769.328125 65.691406 770.464844 C 66.375 771.601562 67.082031 772.722656 67.820312 773.824219 C 68.554688 774.925781 69.320312 776.007812 70.109375 777.070312 C 70.898438 778.136719 71.714844 779.179688 72.554688 780.203125 C 73.394531 781.226562 74.261719 782.230469 75.152344 783.214844 C 76.042969 784.195312 76.957031 785.152344 77.894531 786.089844 C 78.832031 787.027344 79.789062 787.941406 80.773438 788.832031 C 81.753906 789.722656 82.757812 790.585938 83.78125 791.425781 C 84.808594 792.265625 85.851562 793.082031 86.917969 793.871094 C 87.980469 794.660156 89.066406 795.421875 90.167969 796.160156 C 91.269531 796.894531 92.390625 797.605469 93.527344 798.285156 C 94.664062 798.964844 95.816406 799.621094 96.984375 800.242188 C 98.15625 800.867188 99.339844 801.464844 100.535156 802.03125 C 101.734375 802.597656 102.945312 803.132812 104.171875 803.640625 C 105.394531 804.148438 106.632812 804.625 107.878906 805.070312 C 109.128906 805.519531 110.386719 805.933594 111.65625 806.316406 C 112.925781 806.703125 114.203125 807.054688 115.488281 807.378906 C 116.773438 807.699219 118.066406 807.988281 119.367188 808.25 C 120.667969 808.507812 121.972656 808.734375 123.285156 808.925781 C 124.59375 809.121094 125.910156 809.285156 127.230469 809.414062 C 128.546875 809.542969 129.871094 809.640625 131.195312 809.707031 C 132.519531 809.769531 133.84375 809.804688 135.167969 809.804688 L 513.167969 809.804688 C 514.496094 809.804688 515.820312 809.769531 517.144531 809.707031 C 518.46875 809.640625 519.789062 809.542969 521.109375 809.414062 C 522.425781 809.285156 523.742188 809.121094 525.054688 808.925781 C 526.363281 808.734375 527.671875 808.507812 528.972656 808.25 C 530.269531 807.988281 531.5625 807.699219 532.851562 807.378906 C 534.136719 807.054688 535.414062 806.703125 536.683594 806.316406 C 537.949219 805.933594 539.207031 805.519531 540.457031 805.070312 C 541.703125 804.625 542.941406 804.148438 544.167969 803.640625 C 545.390625 803.132812 546.601562 802.597656 547.800781 802.03125 C 549 801.464844 550.183594 800.867188 551.351562 800.242188 C 552.519531 799.621094 553.675781 798.964844 554.8125 798.285156 C 555.949219 797.605469 557.066406 796.894531 558.171875 796.160156 C 559.273438 795.421875 560.355469 794.660156 561.421875 793.871094 C 562.484375 793.082031 563.53125 792.265625 564.554688 791.425781 C 565.578125 790.585938 566.582031 789.722656 567.566406 788.832031 C 568.546875 787.941406 569.507812 787.027344 570.445312 786.089844 C 571.382812 785.152344 572.296875 784.195312 573.1875 783.214844 C 574.074219 782.230469 574.941406 781.226562 575.78125 780.203125 C 576.625 779.179688 577.4375 778.136719 578.230469 777.070312 C 579.019531 776.007812 579.78125 774.925781 580.519531 773.824219 C 581.253906 772.722656 581.964844 771.601562 582.644531 770.464844 C 583.324219 769.328125 583.980469 768.175781 584.605469 767.007812 C 585.230469 765.839844 585.824219 764.65625 586.390625 763.457031 C 586.957031 762.261719 587.496094 761.050781 588.003906 759.824219 C 588.511719 758.601562 588.988281 757.367188 589.433594 756.117188 C 589.878906 754.871094 590.296875 753.613281 590.679688 752.34375 C 591.066406 751.078125 591.417969 749.800781 591.742188 748.515625 C 592.0625 747.230469 592.355469 745.9375 592.613281 744.636719 C 592.871094 743.339844 593.097656 742.03125 593.292969 740.722656 C 593.488281 739.410156 593.648438 738.097656 593.777344 736.777344 C 593.910156 735.460938 594.007812 734.140625 594.070312 732.816406 C 594.136719 731.492188 594.167969 730.167969 594.167969 728.84375 L 594.167969 701.855469 L 675.167969 701.855469 C 676.496094 701.855469 677.820312 701.824219 679.144531 701.757812 C 680.46875 701.695312 681.789062 701.597656 683.109375 701.464844 C 684.425781 701.335938 685.742188 701.175781 687.054688 700.980469 C 688.363281 700.785156 689.671875 700.558594 690.972656 700.300781 C 692.269531 700.042969 693.5625 699.75 694.851562 699.429688 C 696.136719 699.109375 697.414062 698.753906 698.683594 698.371094 C 699.949219 697.984375 701.207031 697.570312 702.457031 697.125 C 703.703125 696.675781 704.941406 696.199219 706.164062 695.691406 C 707.390625 695.1875 708.601562 694.648438 709.800781 694.082031 C 711 693.515625 712.183594 692.921875 713.351562 692.296875 C 714.519531 691.671875 715.675781 691.019531 716.8125 690.335938 C 717.949219 689.65625 719.066406 688.949219 720.167969 688.210938 C 721.273438 687.476562 722.355469 686.714844 723.421875 685.921875 C 724.484375 685.132812 725.53125 684.320312 726.554688 683.480469 C 727.578125 682.636719 728.582031 681.773438 729.566406 680.882812 C 730.546875 679.992188 731.507812 679.082031 732.445312 678.144531 C 733.382812 677.207031 734.296875 676.246094 735.1875 675.265625 C 736.074219 674.285156 736.941406 673.28125 737.78125 672.257812 C 738.625 671.230469 739.4375 670.1875 740.226562 669.125 C 741.019531 668.058594 741.78125 666.976562 742.519531 665.875 C 743.253906 664.773438 743.964844 663.652344 744.644531 662.515625 C 745.328125 661.382812 745.980469 660.226562 746.605469 659.058594 C 747.230469 657.890625 747.824219 656.707031 748.390625 655.511719 C 748.957031 654.3125 749.496094 653.101562 750.003906 651.878906 C 750.511719 650.652344 750.988281 649.417969 751.433594 648.171875 C 751.878906 646.921875 752.296875 645.664062 752.679688 644.398438 C 753.066406 643.128906 753.417969 641.851562 753.742188 640.566406 C 754.0625 639.28125 754.355469 637.988281 754.613281 636.691406 C 754.871094 635.390625 755.097656 634.085938 755.292969 632.773438 C 755.488281 631.464844 755.648438 630.148438 755.777344 628.832031 C 755.910156 627.511719 756.007812 626.191406 756.070312 624.867188 C 756.136719 623.542969 756.167969 622.21875 756.167969 620.894531 L 756.167969 81.15625 C 756.167969 79.832031 756.136719 78.507812 756.070312 77.183594 C 756.007812 75.859375 755.910156 74.539062 755.777344 73.222656 C 755.648438 71.902344 755.488281 70.589844 755.292969 69.277344 C 755.097656 67.96875 754.871094 66.660156 754.613281 65.363281 C 754.355469 64.0625 754.0625 62.769531 753.742188 61.484375 C 753.417969 60.199219 753.066406 58.921875 752.679688 57.65625 C 752.296875 56.386719 751.878906 55.128906 751.433594 53.882812 C 750.988281 52.632812 750.511719 51.398438 750.003906 50.175781 C 749.496094 48.949219 748.957031 47.738281 748.390625 46.542969 C 747.824219 45.34375 747.230469 44.160156 746.605469 42.992188 C 745.980469 41.824219 745.328125 40.671875 744.644531 39.535156 C 743.964844 38.398438 743.253906 37.277344 742.519531 36.175781 C 741.78125 35.074219 741.019531 33.992188 740.226562 32.929688 C 739.4375 31.863281 738.625 30.820312 737.78125 29.796875 C 736.941406 28.773438 736.074219 27.769531 735.1875 26.785156 C 734.296875 25.804688 733.382812 24.847656 732.445312 23.910156 C 731.507812 22.972656 730.546875 22.058594 729.566406 21.167969 C 728.582031 20.277344 727.578125 19.414062 726.554688 18.574219 C 725.53125 17.734375 724.484375 16.917969 723.421875 16.128906 C 722.355469 15.339844 721.273438 14.578125 720.167969 13.839844 C 719.066406 13.105469 717.949219 12.394531 716.8125 11.714844 C 715.675781 11.035156 714.519531 10.378906 713.351562 9.753906 C 712.183594 9.132812 711 8.535156 709.800781 7.96875 C 708.601562 7.402344 707.390625 6.867188 706.164062 6.359375 C 704.941406 5.851562 703.703125 5.375 702.457031 4.929688 C 701.207031 4.480469 699.949219 4.066406 698.683594 3.683594 C 697.414062 3.296875 696.136719 2.945312 694.851562 2.621094 C 693.5625 2.300781 692.269531 2.011719 690.972656 1.75 C 689.671875 1.492188 688.363281 1.265625 687.054688 1.074219 C 685.742188 0.878906 684.425781 0.714844 683.109375 0.585938 C 681.789062 0.457031 680.46875 0.359375 679.144531 0.292969 C 677.820312 0.230469 676.496094 0.195312 675.167969 0.195312 L 297.167969 0.195312 C 295.84375 0.195312 294.519531 0.230469 293.195312 0.292969 C 291.871094 0.359375 290.546875 0.457031 289.230469 0.585938 C 287.910156 0.714844 286.59375 0.878906 285.285156 1.074219 C 283.972656 1.265625 282.667969 1.492188 281.367188 1.75 C 280.066406 2.011719 278.773438 2.300781 277.488281 2.621094 C 276.203125 2.945312 274.925781 3.296875 273.65625 3.683594 C 272.386719 4.066406 271.128906 4.480469 269.878906 4.929688 C 268.632812 5.375 267.394531 5.851562 266.171875 6.359375 C 264.945312 6.867188 263.734375 7.402344 262.535156 7.96875 C 261.339844 8.535156 260.15625 9.132812 258.984375 9.753906 C 257.816406 10.378906 256.664062 11.035156 255.527344 11.714844 C 254.390625 12.394531 253.269531 13.105469 252.167969 13.839844 C 251.066406 14.578125 249.980469 15.339844 248.917969 16.128906 C 247.851562 16.917969 246.808594 17.734375 245.78125 18.574219 C 244.757812 19.414062 243.753906 20.277344 242.773438 21.167969 C 241.789062 22.058594 240.832031 22.972656 239.894531 23.910156 C 238.957031 24.847656 238.042969 25.804688 237.152344 26.785156 C 236.261719 27.769531 235.394531 28.773438 234.554688 29.796875 C 233.714844 30.820312 232.898438 31.863281 232.109375 32.929688 C 231.320312 33.992188 230.554688 35.074219 229.820312 36.175781 C 229.082031 37.277344 228.375 38.398438 227.691406 39.535156 C 227.011719 40.671875 226.359375 41.824219 225.734375 42.992188 C 225.109375 44.160156 224.511719 45.34375 223.945312 46.542969 C 223.378906 47.738281 222.839844 48.949219 222.335938 50.175781 C 221.828125 51.398438 221.351562 52.632812 220.902344 53.882812 C 220.457031 55.128906 220.042969 56.386719 219.65625 57.65625 C 219.273438 58.921875 218.917969 60.199219 218.597656 61.484375 C 218.273438 62.769531 217.984375 64.0625 217.726562 65.363281 C 217.464844 66.660156 217.238281 67.96875 217.046875 69.277344 C 216.851562 70.589844 216.6875 71.902344 216.558594 73.222656 C 216.429688 74.539062 216.332031 75.859375 216.265625 77.183594 C 216.203125 78.507812 216.167969 79.832031 216.167969 81.15625 L 216.167969 108.144531 L 135.167969 108.144531 C 133.84375 108.144531 132.519531 108.175781 131.195312 108.242188 C 129.871094 108.304688 128.546875 108.402344 127.230469 108.535156 C 125.910156 108.664062 124.59375 108.824219 123.285156 109.019531 C 121.972656 109.214844 120.667969 109.441406 119.367188 109.699219 C 118.066406 109.957031 116.773438 110.25 115.488281 110.570312 C 114.203125 110.890625 112.925781 111.246094 111.65625 111.628906 C 110.386719 112.015625 109.128906 112.429688 107.878906 112.875 C 106.632812 113.324219 105.394531 113.800781 104.171875 114.304688 C 102.945312 114.8125 101.734375 115.351562 100.535156 115.917969 C 99.339844 116.484375 98.15625 117.078125 96.984375 117.703125 C 95.816406 118.328125 94.664062 118.980469 93.527344 119.664062 C 92.390625 120.34375 91.269531 121.050781 90.167969 121.789062 C 89.066406 122.523438 87.980469 123.285156 86.917969 124.078125 C 85.851562 124.867188 84.808594 125.679688 83.78125 126.519531 C 82.757812 127.363281 81.753906 128.226562 80.773438 129.117188 C 79.789062 130.007812 78.832031 130.917969 77.894531 131.855469 C 76.957031 132.792969 76.042969 133.753906 75.152344 134.734375 C 74.261719 135.714844 73.394531 136.71875 72.554688 137.742188 C 71.714844 138.769531 70.898438 139.8125 70.109375 140.875 C 69.320312 141.941406 68.554688 143.023438 67.820312 144.125 C 67.082031 145.226562 66.375 146.347656 65.691406 147.480469 C 65.011719 148.617188 64.359375 149.769531 63.734375 150.941406 C 63.109375 152.109375 62.511719 153.292969 61.945312 154.488281 C 61.378906 155.6875 60.84375 156.898438 60.335938 158.121094 C 59.828125 159.347656 59.351562 160.582031 58.902344 161.828125 C 58.457031 163.078125 58.042969 164.335938 57.65625 165.601562 C 57.273438 166.871094 56.917969 168.148438 56.597656 169.433594 C 56.273438 170.71875 55.984375 172.011719 55.726562 173.308594 C 55.464844 174.609375 55.238281 175.914062 55.046875 177.226562 C 54.851562 178.535156 54.6875 179.851562 54.558594 181.167969 C 54.429688 182.488281 54.332031 183.808594 54.265625 185.132812 C 54.203125 186.457031 54.167969 187.78125 54.167969 189.105469 Z M 270.167969 81.15625 C 270.167969 80.273438 270.210938 79.390625 270.296875 78.511719 C 270.386719 77.632812 270.515625 76.757812 270.6875 75.890625 C 270.859375 75.023438 271.074219 74.167969 271.332031 73.324219 C 271.589844 72.476562 271.886719 71.644531 272.222656 70.828125 C 272.5625 70.011719 272.941406 69.214844 273.355469 68.433594 C 273.773438 67.65625 274.226562 66.898438 274.71875 66.164062 C 275.210938 65.429688 275.738281 64.71875 276.296875 64.035156 C 276.859375 63.351562 277.453125 62.699219 278.078125 62.074219 C 278.703125 61.449219 279.355469 60.855469 280.039062 60.296875 C 280.722656 59.734375 281.433594 59.210938 282.167969 58.71875 C 282.902344 58.226562 283.660156 57.773438 284.441406 57.355469 C 285.222656 56.941406 286.019531 56.5625 286.835938 56.222656 C 287.652344 55.886719 288.484375 55.589844 289.332031 55.332031 C 290.175781 55.074219 291.035156 54.859375 291.902344 54.6875 C 292.769531 54.515625 293.640625 54.386719 294.523438 54.300781 C 295.402344 54.214844 296.285156 54.171875 297.167969 54.171875 L 675.167969 54.171875 C 676.054688 54.171875 676.933594 54.214844 677.816406 54.300781 C 678.695312 54.386719 679.570312 54.515625 680.4375 54.6875 C 681.304688 54.859375 682.160156 55.074219 683.007812 55.332031 C 683.851562 55.589844 684.683594 55.886719 685.5 56.222656 C 686.316406 56.5625 687.117188 56.941406 687.894531 57.355469 C 688.675781 57.773438 689.433594 58.226562 690.167969 58.71875 C 690.902344 59.210938 691.613281 59.734375 692.296875 60.296875 C 692.980469 60.855469 693.636719 61.449219 694.261719 62.074219 C 694.886719 62.699219 695.480469 63.351562 696.039062 64.035156 C 696.601562 64.71875 697.128906 65.429688 697.617188 66.164062 C 698.109375 66.898438 698.5625 67.65625 698.980469 68.433594 C 699.398438 69.214844 699.773438 70.011719 700.113281 70.828125 C 700.453125 71.644531 700.75 72.476562 701.007812 73.324219 C 701.261719 74.167969 701.476562 75.023438 701.648438 75.890625 C 701.824219 76.757812 701.953125 77.632812 702.039062 78.511719 C 702.125 79.390625 702.167969 80.273438 702.167969 81.15625 L 702.167969 620.894531 C 702.167969 621.777344 702.125 622.660156 702.039062 623.539062 C 701.953125 624.421875 701.824219 625.292969 701.648438 626.160156 C 701.476562 627.027344 701.261719 627.882812 701.007812 628.730469 C 700.75 629.574219 700.453125 630.40625 700.113281 631.222656 C 699.773438 632.039062 699.398438 632.835938 698.980469 633.617188 C 698.5625 634.394531 698.109375 635.152344 697.617188 635.886719 C 697.128906 636.625 696.601562 637.332031 696.039062 638.015625 C 695.480469 638.699219 694.886719 639.351562 694.261719 639.976562 C 693.636719 640.601562 692.980469 641.195312 692.296875 641.757812 C 691.613281 642.316406 690.90625 642.84375 690.167969 643.335938 C 689.433594 643.824219 688.675781 644.277344 687.894531 644.695312 C 687.117188 645.113281 686.316406 645.488281 685.5 645.828125 C 684.683594 646.167969 683.851562 646.464844 683.007812 646.71875 C 682.160156 646.976562 681.304688 647.191406 680.4375 647.363281 C 679.570312 647.535156 678.695312 647.664062 677.816406 647.753906 C 676.933594 647.839844 676.054688 647.882812 675.167969 647.882812 L 594.167969 647.882812 L 594.167969 189.105469 C 594.167969 187.78125 594.136719 186.457031 594.070312 185.132812 C 594.007812 183.808594 593.910156 182.488281 593.777344 181.167969 C 593.648438 179.851562 593.488281 178.535156 593.292969 177.226562 C 593.097656 175.914062 592.871094 174.609375 592.613281 173.308594 C 592.355469 172.011719 592.0625 170.71875 591.742188 169.433594 C 591.417969 168.148438 591.066406 166.871094 590.679688 165.601562 C 590.296875 164.335938 589.878906 163.078125 589.433594 161.828125 C 588.988281 160.582031 588.511719 159.347656 588.003906 158.121094 C 587.496094 156.898438 586.957031 155.6875 586.390625 154.488281 C 585.824219 153.292969 585.230469 152.109375 584.605469 150.941406 C 583.980469 149.769531 583.324219 148.617188 582.644531 147.480469 C 581.964844 146.347656 581.253906 145.226562 580.519531 144.125 C 579.78125 143.023438 579.019531 141.941406 578.230469 140.875 C 577.4375 139.8125 576.625 138.769531 575.78125 137.742188 C 574.941406 136.71875 574.074219 135.714844 573.1875 134.734375 C 572.296875 133.753906 571.382812 132.792969 570.445312 131.855469 C 569.507812 130.917969 568.546875 130.007812 567.566406 129.117188 C 566.582031 128.226562 565.578125 127.363281 564.554688 126.519531 C 563.53125 125.679688 562.484375 124.867188 561.421875 124.078125 C 560.355469 123.285156 559.273438 122.523438 558.171875 121.789062 C 557.066406 121.050781 555.949219 120.34375 554.8125 119.664062 C 553.675781 118.980469 552.519531 118.328125 551.351562 117.703125 C 550.183594 117.078125 549 116.484375 547.800781 115.917969 C 546.601562 115.351562 545.390625 114.8125 544.167969 114.304688 C 542.941406 113.800781 541.703125 113.324219 540.457031 112.875 C 539.207031 112.429688 537.949219 112.015625 536.683594 111.628906 C 535.414062 111.246094 534.136719 110.890625 532.851562 110.570312 C 531.5625 110.25 530.269531 109.957031 528.972656 109.699219 C 527.671875 109.441406 526.363281 109.214844 525.054688 109.019531 C 523.742188 108.824219 522.425781 108.664062 521.109375 108.535156 C 519.789062 108.402344 518.46875 108.304688 517.144531 108.242188 C 515.820312 108.175781 514.496094 108.144531 513.167969 108.144531 L 270.167969 108.144531 Z M 108.167969 189.105469 C 108.167969 188.222656 108.210938 187.339844 108.296875 186.460938 C 108.386719 185.578125 108.515625 184.707031 108.6875 183.839844 C 108.859375 182.972656 109.074219 182.117188 109.332031 181.269531 C 109.589844 180.425781 109.886719 179.59375 110.222656 178.777344 C 110.5625 177.960938 110.941406 177.164062 111.355469 176.382812 C 111.773438 175.605469 112.226562 174.847656 112.71875 174.113281 C 113.210938 173.375 113.738281 172.667969 114.296875 171.984375 C 114.859375 171.300781 115.453125 170.648438 116.078125 170.023438 C 116.703125 169.398438 117.355469 168.804688 118.039062 168.242188 C 118.722656 167.683594 119.433594 167.15625 120.167969 166.664062 C 120.902344 166.175781 121.660156 165.722656 122.441406 165.304688 C 123.222656 164.886719 124.019531 164.511719 124.835938 164.171875 C 125.652344 163.832031 126.484375 163.535156 127.332031 163.28125 C 128.175781 163.023438 129.035156 162.808594 129.902344 162.636719 C 130.769531 162.464844 131.640625 162.335938 132.523438 162.246094 C 133.402344 162.160156 134.285156 162.117188 135.167969 162.117188 L 513.167969 162.117188 C 514.054688 162.117188 514.933594 162.160156 515.816406 162.246094 C 516.695312 162.335938 517.570312 162.464844 518.4375 162.636719 C 519.304688 162.808594 520.160156 163.023438 521.007812 163.28125 C 521.851562 163.535156 522.683594 163.832031 523.5 164.171875 C 524.316406 164.511719 525.117188 164.886719 525.894531 165.304688 C 526.675781 165.722656 527.433594 166.175781 528.167969 166.664062 C 528.90625 167.15625 529.613281 167.683594 530.296875 168.242188 C 530.980469 168.804688 531.636719 169.398438 532.261719 170.023438 C 532.886719 170.648438 533.480469 171.300781 534.039062 171.984375 C 534.601562 172.667969 535.128906 173.375 535.617188 174.113281 C 536.109375 174.847656 536.5625 175.601562 536.980469 176.382812 C 537.398438 177.164062 537.773438 177.960938 538.113281 178.777344 C 538.453125 179.59375 538.75 180.425781 539.007812 181.269531 C 539.261719 182.117188 539.476562 182.972656 539.648438 183.839844 C 539.824219 184.707031 539.953125 185.578125 540.039062 186.460938 C 540.125 187.339844 540.167969 188.222656 540.167969 189.105469 L 540.167969 728.84375 C 540.167969 729.726562 540.125 730.609375 540.039062 731.488281 C 539.953125 732.367188 539.824219 733.242188 539.648438 734.109375 C 539.476562 734.976562 539.261719 735.832031 539.007812 736.675781 C 538.75 737.523438 538.453125 738.355469 538.113281 739.171875 C 537.773438 739.988281 537.398438 740.785156 536.980469 741.566406 C 536.5625 742.34375 536.109375 743.101562 535.617188 743.835938 C 535.128906 744.570312 534.601562 745.28125 534.039062 745.964844 C 533.480469 746.648438 532.886719 747.300781 532.261719 747.925781 C 531.636719 748.550781 530.980469 749.144531 530.296875 749.703125 C 529.613281 750.265625 528.90625 750.789062 528.167969 751.28125 C 527.433594 751.773438 526.675781 752.226562 525.894531 752.644531 C 525.117188 753.058594 524.316406 753.4375 523.5 753.777344 C 522.683594 754.113281 521.851562 754.410156 521.007812 754.667969 C 520.160156 754.925781 519.304688 755.140625 518.4375 755.3125 C 517.570312 755.484375 516.695312 755.613281 515.816406 755.699219 C 514.933594 755.785156 514.054688 755.828125 513.167969 755.828125 L 135.167969 755.828125 C 134.285156 755.828125 133.402344 755.785156 132.523438 755.699219 C 131.640625 755.613281 130.769531 755.484375 129.902344 755.3125 C 129.035156 755.140625 128.175781 754.925781 127.332031 754.667969 C 126.484375 754.410156 125.652344 754.113281 124.835938 753.777344 C 124.019531 753.4375 123.222656 753.058594 122.441406 752.644531 C 121.660156 752.226562 120.902344 751.773438 120.167969 751.28125 C 119.433594 750.789062 118.722656 750.265625 118.039062 749.703125 C 117.355469 749.144531 116.703125 748.550781 116.078125 747.925781 C 115.453125 747.300781 114.859375 746.648438 114.296875 745.964844 C 113.738281 745.28125 113.210938 744.570312 112.71875 743.835938 C 112.226562 743.101562 111.773438 742.34375 111.355469 741.566406 C 110.941406 740.785156 110.5625 739.988281 110.222656 739.171875 C 109.886719 738.355469 109.589844 737.523438 109.332031 736.675781 C 109.074219 735.832031 108.859375 734.976562 108.6875 734.109375 C 108.515625 733.242188 108.386719 732.367188 108.296875 731.488281 C 108.210938 730.609375 108.167969 729.726562 108.167969 728.84375 Z M 108.167969 189.105469 " fill-opacity="1" fill-rule="nonzero"/></g></svg>